<svg xmlns="http://www.w3.org/2000/svg" xmlns:xlink="http://www.w3.org/1999/xlink" width="400" zoomAndPan="magnify" viewBox="0 0 300 149.999998" height="200" preserveAspectRatio="xMidYMid meet" version="1.2"><defs><clipPath id="20371e37c9"><path d="M 34.84375 50 L 62 50 L 62 94 L 34.84375 94 Z M 34.84375 50 "/></clipPath><clipPath id="793cb8ca99"><path d="M 61.898438 58.414062 L 52.335938 76.511719 L 44.722656 90.921875 L 43.285156 93.632812 C 42.886719 93.667969 42.5 93.613281 42.128906 93.464844 L 41.734375 93.253906 L 36.011719 90.175781 C 35.753906 90.035156 35.535156 89.851562 35.351562 89.625 C 35.167969 89.398438 35.03125 89.144531 34.949219 88.867188 C 34.863281 88.585938 34.835938 88.300781 34.863281 88.011719 C 34.890625 87.71875 34.972656 87.445312 35.109375 87.1875 L 52.71875 53.835938 L 53.804688 51.78125 C 54.082031 51.253906 54.457031 50.808594 54.929688 50.453125 C 55.175781 50.273438 55.449219 50.183594 55.753906 50.1875 C 56.328125 50.191406 56.855469 50.347656 57.34375 50.652344 C 57.828125 50.960938 58.199219 51.371094 58.453125 51.882812 Z M 61.898438 58.414062 "/></clipPath><linearGradient x1="5.060281" gradientTransform="matrix(0.265714,0,0,0.265622,34.842459,49.734605)" y1="168.275754" x2="100.281547" gradientUnits="userSpaceOnUse" y2="0.809885" id="f45cf18f9b"><stop style="stop-color:#ff6a19;stop-opacity:1;" offset="0"/><stop style="stop-color:#ff6a19;stop-opacity:1;" offset="0.25"/><stop style="stop-color:#ff6a19;stop-opacity:1;" offset="0.261274"/><stop style="stop-color:#ff6a19;stop-opacity:1;" offset="0.375"/><stop style="stop-color:#ff6a19;stop-opacity:1;" offset="0.4375"/><stop style="stop-color:#ff6a19;stop-opacity:1;" offset="0.46875"/><stop style="stop-color:#ff6a19;stop-opacity:1;" offset="0.484375"/><stop style="stop-color:#ff6a19;stop-opacity:1;" offset="0.492188"/><stop style="stop-color:#ff6918;stop-opacity:1;" offset="0.496094"/><stop style="stop-color:#ff6918;stop-opacity:1;" offset="0.5"/><stop style="stop-color:#ff6817;stop-opacity:1;" offset="0.503906"/><stop style="stop-color:#ff6716;stop-opacity:1;" offset="0.507812"/><stop style="stop-color:#ff6715;stop-opacity:1;" offset="0.511719"/><stop style="stop-color:#ff6615;stop-opacity:1;" offset="0.515625"/><stop style="stop-color:#ff6514;stop-opacity:1;" offset="0.519531"/><stop style="stop-color:#ff6413;stop-opacity:1;" offset="0.523438"/><stop style="stop-color:#ff6412;stop-opacity:1;" offset="0.527344"/><stop style="stop-color:#ff6311;stop-opacity:1;" offset="0.53125"/><stop style="stop-color:#ff6211;stop-opacity:1;" offset="0.535156"/><stop style="stop-color:#ff6110;stop-opacity:1;" offset="0.539062"/><stop style="stop-color:#ff610f;stop-opacity:1;" offset="0.542969"/><stop style="stop-color:#ff600e;stop-opacity:1;" offset="0.546875"/><stop style="stop-color:#ff5f0e;stop-opacity:1;" offset="0.550781"/><stop style="stop-color:#ff5e0d;stop-opacity:1;" offset="0.554688"/><stop style="stop-color:#ff5e0c;stop-opacity:1;" offset="0.558594"/><stop style="stop-color:#ff5d0b;stop-opacity:1;" offset="0.5625"/><stop style="stop-color:#ff5c0a;stop-opacity:1;" offset="0.566406"/><stop style="stop-color:#ff5b0a;stop-opacity:1;" offset="0.570312"/><stop style="stop-color:#ff5b09;stop-opacity:1;" offset="0.574219"/><stop style="stop-color:#ff5a08;stop-opacity:1;" offset="0.578125"/><stop style="stop-color:#ff5907;stop-opacity:1;" offset="0.582031"/><stop style="stop-color:#ff5807;stop-opacity:1;" offset="0.585938"/><stop style="stop-color:#ff5806;stop-opacity:1;" offset="0.589844"/><stop style="stop-color:#ff5705;stop-opacity:1;" offset="0.59375"/><stop style="stop-color:#ff5604;stop-opacity:1;" offset="0.597656"/><stop style="stop-color:#ff5504;stop-opacity:1;" offset="0.601562"/><stop style="stop-color:#ff5503;stop-opacity:1;" offset="0.605469"/><stop style="stop-color:#ff5402;stop-opacity:1;" offset="0.609375"/><stop style="stop-color:#ff5301;stop-opacity:1;" offset="0.613281"/><stop style="stop-color:#ff5300;stop-opacity:1;" offset="0.617188"/><stop style="stop-color:#ff5200;stop-opacity:1;" offset="0.625"/><stop style="stop-color:#fe5200;stop-opacity:1;" offset="0.632812"/><stop style="stop-color:#fd5100;stop-opacity:1;" offset="0.640625"/><stop style="stop-color:#fd5100;stop-opacity:1;" offset="0.648438"/><stop style="stop-color:#fc5000;stop-opacity:1;" offset="0.65625"/><stop style="stop-color:#fb5000;stop-opacity:1;" offset="0.664062"/><stop style="stop-color:#fa5000;stop-opacity:1;" offset="0.671875"/><stop style="stop-color:#fa4f00;stop-opacity:1;" offset="0.679688"/><stop style="stop-color:#f94f00;stop-opacity:1;" offset="0.6875"/><stop style="stop-color:#f84e00;stop-opacity:1;" offset="0.695312"/><stop style="stop-color:#f74e00;stop-opacity:1;" offset="0.703125"/><stop style="stop-color:#f74e00;stop-opacity:1;" offset="0.710938"/><stop style="stop-color:#f64d00;stop-opacity:1;" offset="0.71875"/><stop style="stop-color:#f54d00;stop-opacity:1;" offset="0.726563"/><stop style="stop-color:#f44d00;stop-opacity:1;" offset="0.734375"/><stop style="stop-color:#f44c00;stop-opacity:1;" offset="0.738726"/><stop style="stop-color:#f34c00;stop-opacity:1;" offset="0.742188"/><stop style="stop-color:#f34c00;stop-opacity:1;" offset="0.75"/><stop style="stop-color:#f24b00;stop-opacity:1;" offset="0.757812"/><stop style="stop-color:#f14b00;stop-opacity:1;" offset="0.765625"/><stop style="stop-color:#f14b00;stop-opacity:1;" offset="0.773438"/><stop style="stop-color:#f04a00;stop-opacity:1;" offset="0.78125"/><stop style="stop-color:#ef4a00;stop-opacity:1;" offset="0.789062"/><stop style="stop-color:#ee4900;stop-opacity:1;" offset="0.796875"/><stop style="stop-color:#ed4900;stop-opacity:1;" offset="0.804687"/><stop style="stop-color:#ed4900;stop-opacity:1;" offset="0.8125"/><stop style="stop-color:#ec4800;stop-opacity:1;" offset="0.820312"/><stop style="stop-color:#eb4800;stop-opacity:1;" offset="0.828125"/><stop style="stop-color:#ea4700;stop-opacity:1;" offset="0.835938"/><stop style="stop-color:#ea4700;stop-opacity:1;" offset="0.84375"/><stop style="stop-color:#e94700;stop-opacity:1;" offset="0.851562"/><stop style="stop-color:#e84600;stop-opacity:1;" offset="0.859375"/><stop style="stop-color:#e74600;stop-opacity:1;" offset="0.867188"/><stop style="stop-color:#e74500;stop-opacity:1;" offset="0.875"/><stop style="stop-color:#e64500;stop-opacity:1;" offset="0.882813"/><stop style="stop-color:#e54500;stop-opacity:1;" offset="0.890625"/><stop style="stop-color:#e44401;stop-opacity:1;" offset="0.898438"/><stop style="stop-color:#e34401;stop-opacity:1;" offset="0.90625"/><stop style="stop-color:#e24402;stop-opacity:1;" offset="0.914062"/><stop style="stop-color:#e14402;stop-opacity:1;" offset="0.921875"/><stop style="stop-color:#e14302;stop-opacity:1;" offset="0.929688"/><stop style="stop-color:#e04303;stop-opacity:1;" offset="0.9375"/><stop style="stop-color:#df4303;stop-opacity:1;" offset="0.945312"/><stop style="stop-color:#de4204;stop-opacity:1;" offset="0.953125"/><stop style="stop-color:#dd4204;stop-opacity:1;" offset="0.960937"/><stop style="stop-color:#dc4204;stop-opacity:1;" offset="0.96875"/><stop style="stop-color:#db4105;stop-opacity:1;" offset="0.976562"/><stop style="stop-color:#da4105;stop-opacity:1;" offset="0.984375"/><stop style="stop-color:#d94106;stop-opacity:1;" offset="0.992188"/><stop style="stop-color:#d84006;stop-opacity:1;" offset="1"/></linearGradient><clipPath id="d7e9b799d0"><path d="M 55 49.691406 L 90 49.691406 L 90 94 L 55 94 Z M 55 49.691406 "/></clipPath><clipPath id="7dc027e199"><path d="M 88.164062 90.8125 L 83.378906 93.351562 C 83.085938 93.507812 82.773438 93.601562 82.441406 93.632812 C 82.109375 93.664062 81.785156 93.632812 81.464844 93.535156 C 81.148438 93.4375 80.859375 93.285156 80.601562 93.074219 C 80.34375 92.863281 80.136719 92.609375 79.980469 92.316406 L 72.320312 78 L 72.121094 77.628906 L 67.285156 68.597656 L 67.09375 68.238281 L 61.914062 58.554688 L 58.402344 51.964844 L 58.351562 51.859375 C 58.082031 51.367188 57.707031 50.972656 57.222656 50.683594 C 56.742188 50.394531 56.21875 50.25 55.65625 50.246094 C 55.5 50.246094 55.339844 50.257812 55.183594 50.28125 C 55.8125 49.917969 56.488281 49.734375 57.214844 49.734375 L 66.636719 49.734375 C 67.378906 49.734375 68.066406 49.925781 68.703125 50.308594 C 69.339844 50.6875 69.832031 51.207031 70.183594 51.859375 L 76.253906 63.203125 L 76.472656 63.609375 L 81.183594 72.546875 L 81.40625 72.96875 L 89.195312 87.410156 C 89.351562 87.703125 89.449219 88.015625 89.480469 88.347656 C 89.515625 88.679688 89.484375 89.007812 89.386719 89.324219 C 89.289062 89.644531 89.136719 89.933594 88.921875 90.191406 C 88.710938 90.449219 88.457031 90.65625 88.164062 90.8125 Z M 88.164062 90.8125 "/></clipPath><linearGradient x1="96.01304" gradientTransform="matrix(0.265714,0,0,0.265622,34.842459,49.734605)" y1="-10.787543" x2="196.516292" gradientUnits="userSpaceOnUse" y2="170.506596" id="797fc27389"><stop style="stop-color:#ff8126;stop-opacity:1;" offset="0"/><stop style="stop-color:#ff8025;stop-opacity:1;" offset="0.00390625"/><stop style="stop-color:#ff8025;stop-opacity:1;" offset="0.0078125"/><stop style="stop-color:#ff7f24;stop-opacity:1;" offset="0.0117187"/><stop style="stop-color:#ff7e24;stop-opacity:1;" offset="0.015625"/><stop style="stop-color:#ff7d24;stop-opacity:1;" offset="0.0195313"/><stop style="stop-color:#ff7c23;stop-opacity:1;" offset="0.0234375"/><stop style="stop-color:#ff7c23;stop-opacity:1;" offset="0.0273437"/><stop style="stop-color:#ff7b22;stop-opacity:1;" offset="0.03125"/><stop style="stop-color:#ff7a22;stop-opacity:1;" offset="0.0351563"/><stop style="stop-color:#ff7921;stop-opacity:1;" offset="0.0390625"/><stop style="stop-color:#ff7921;stop-opacity:1;" offset="0.0429687"/><stop style="stop-color:#ff7821;stop-opacity:1;" offset="0.046875"/><stop style="stop-color:#ff7720;stop-opacity:1;" offset="0.0507812"/><stop style="stop-color:#ff7620;stop-opacity:1;" offset="0.0546875"/><stop style="stop-color:#ff751f;stop-opacity:1;" offset="0.0585937"/><stop style="stop-color:#ff751f;stop-opacity:1;" offset="0.0625"/><stop style="stop-color:#ff741e;stop-opacity:1;" offset="0.0664062"/><stop style="stop-color:#ff731e;stop-opacity:1;" offset="0.0703125"/><stop style="stop-color:#ff721e;stop-opacity:1;" offset="0.0742187"/><stop style="stop-color:#ff721d;stop-opacity:1;" offset="0.078125"/><stop style="stop-color:#ff711d;stop-opacity:1;" offset="0.0820312"/><stop style="stop-color:#ff701c;stop-opacity:1;" offset="0.0859375"/><stop style="stop-color:#ff6f1c;stop-opacity:1;" offset="0.0898437"/><stop style="stop-color:#ff6e1b;stop-opacity:1;" offset="0.09375"/><stop style="stop-color:#ff6e1b;stop-opacity:1;" offset="0.0976562"/><stop style="stop-color:#ff6d1b;stop-opacity:1;" offset="0.101562"/><stop style="stop-color:#ff6c1a;stop-opacity:1;" offset="0.105469"/><stop style="stop-color:#ff6b1a;stop-opacity:1;" offset="0.109375"/><stop style="stop-color:#ff6a19;stop-opacity:1;" offset="0.113281"/><stop style="stop-color:#ff6a19;stop-opacity:1;" offset="0.117187"/><stop style="stop-color:#ff6918;stop-opacity:1;" offset="0.121094"/><stop style="stop-color:#ff6817;stop-opacity:1;" offset="0.125"/><stop style="stop-color:#ff6716;stop-opacity:1;" offset="0.128906"/><stop style="stop-color:#ff6615;stop-opacity:1;" offset="0.132812"/><stop style="stop-color:#ff6514;stop-opacity:1;" offset="0.136719"/><stop style="stop-color:#ff6413;stop-opacity:1;" offset="0.140625"/><stop style="stop-color:#ff6312;stop-opacity:1;" offset="0.144531"/><stop style="stop-color:#ff6211;stop-opacity:1;" offset="0.148437"/><stop style="stop-color:#ff6110;stop-opacity:1;" offset="0.152344"/><stop style="stop-color:#ff600f;stop-opacity:1;" offset="0.15625"/><stop style="stop-color:#ff5f0e;stop-opacity:1;" offset="0.160156"/><stop style="stop-color:#ff5e0d;stop-opacity:1;" offset="0.164062"/><stop style="stop-color:#ff5d0c;stop-opacity:1;" offset="0.167969"/><stop style="stop-color:#ff5c0b;stop-opacity:1;" offset="0.171875"/><stop style="stop-color:#ff5b0a;stop-opacity:1;" offset="0.175781"/><stop style="stop-color:#ff5a09;stop-opacity:1;" offset="0.179687"/><stop style="stop-color:#ff5a08;stop-opacity:1;" offset="0.183594"/><stop style="stop-color:#ff5907;stop-opacity:1;" offset="0.1875"/><stop style="stop-color:#ff5806;stop-opacity:1;" offset="0.191406"/><stop style="stop-color:#ff5705;stop-opacity:1;" offset="0.195312"/><stop style="stop-color:#ff5604;stop-opacity:1;" offset="0.199219"/><stop style="stop-color:#ff5503;stop-opacity:1;" offset="0.203125"/><stop style="stop-color:#ff5402;stop-opacity:1;" offset="0.207031"/><stop style="stop-color:#ff5301;stop-opacity:1;" offset="0.210938"/><stop style="stop-color:#ff5200;stop-opacity:1;" offset="0.21875"/><stop style="stop-color:#ff5200;stop-opacity:1;" offset="0.25"/><stop style="stop-color:#ff5200;stop-opacity:1;" offset="0.265625"/><stop style="stop-color:#fd5100;stop-opacity:1;" offset="0.269531"/><stop style="stop-color:#fb5000;stop-opacity:1;" offset="0.273438"/><stop style="stop-color:#fa4f00;stop-opacity:1;" offset="0.277344"/><stop style="stop-color:#f84f00;stop-opacity:1;" offset="0.28125"/><stop style="stop-color:#f74e00;stop-opacity:1;" offset="0.285156"/><stop style="stop-color:#f54d00;stop-opacity:1;" offset="0.289062"/><stop style="stop-color:#f44c00;stop-opacity:1;" offset="0.292969"/><stop style="stop-color:#f24b00;stop-opacity:1;" offset="0.296875"/><stop style="stop-color:#f14b00;stop-opacity:1;" offset="0.300781"/><stop style="stop-color:#ef4a00;stop-opacity:1;" offset="0.304688"/><stop style="stop-color:#ee4900;stop-opacity:1;" offset="0.308594"/><stop style="stop-color:#ec4800;stop-opacity:1;" offset="0.3125"/><stop style="stop-color:#eb4800;stop-opacity:1;" offset="0.316406"/><stop style="stop-color:#e94700;stop-opacity:1;" offset="0.320313"/><stop style="stop-color:#e84600;stop-opacity:1;" offset="0.324219"/><stop style="stop-color:#e64500;stop-opacity:1;" offset="0.328125"/><stop style="stop-color:#e44401;stop-opacity:1;" offset="0.332031"/><stop style="stop-color:#e24402;stop-opacity:1;" offset="0.335938"/><stop style="stop-color:#df4303;stop-opacity:1;" offset="0.339844"/><stop style="stop-color:#dc4204;stop-opacity:1;" offset="0.34375"/><stop style="stop-color:#da4105;stop-opacity:1;" offset="0.347656"/><stop style="stop-color:#d74006;stop-opacity:1;" offset="0.351563"/><stop style="stop-color:#d53f08;stop-opacity:1;" offset="0.355469"/><stop style="stop-color:#d23e09;stop-opacity:1;" offset="0.359375"/><stop style="stop-color:#d03d0a;stop-opacity:1;" offset="0.363281"/><stop style="stop-color:#cd3c0b;stop-opacity:1;" offset="0.367187"/><stop style="stop-color:#cb3c0c;stop-opacity:1;" offset="0.371094"/><stop style="stop-color:#c83b0d;stop-opacity:1;" offset="0.375"/><stop style="stop-color:#c73a0e;stop-opacity:1;" offset="0.378906"/><stop style="stop-color:#c63a0e;stop-opacity:1;" offset="0.382813"/><stop style="stop-color:#c63a0e;stop-opacity:1;" offset="0.390625"/><stop style="stop-color:#c63a0e;stop-opacity:1;" offset="0.40625"/><stop style="stop-color:#c63a0e;stop-opacity:1;" offset="0.4375"/><stop style="stop-color:#c63a0e;stop-opacity:1;" offset="0.46875"/><stop style="stop-color:#c63a0e;stop-opacity:1;" offset="0.484375"/><stop style="stop-color:#c63a0e;stop-opacity:1;" offset="0.492187"/><stop style="stop-color:#e25515;stop-opacity:1;" offset="0.496094"/><stop style="stop-color:#ff711d;stop-opacity:1;" offset="0.5"/><stop style="stop-color:#ff751f;stop-opacity:1;" offset="0.503906"/><stop style="stop-color:#ff7921;stop-opacity:1;" offset="0.507813"/><stop style="stop-color:#ff7c23;stop-opacity:1;" offset="0.511719"/><stop style="stop-color:#ff8025;stop-opacity:1;" offset="0.515625"/><stop style="stop-color:#ff8427;stop-opacity:1;" offset="0.519531"/><stop style="stop-color:#ff882a;stop-opacity:1;" offset="0.523438"/><stop style="stop-color:#ff8829;stop-opacity:1;" offset="0.527344"/><stop style="stop-color:#ff8829;stop-opacity:1;" offset="0.53125"/><stop style="stop-color:#ff8528;stop-opacity:1;" offset="0.535156"/><stop style="stop-color:#ff8226;stop-opacity:1;" offset="0.539062"/><stop style="stop-color:#ff8025;stop-opacity:1;" offset="0.542969"/><stop style="stop-color:#ff7d24;stop-opacity:1;" offset="0.546875"/><stop style="stop-color:#ff7b22;stop-opacity:1;" offset="0.550781"/><stop style="stop-color:#ff7821;stop-opacity:1;" offset="0.554688"/><stop style="stop-color:#ff751f;stop-opacity:1;" offset="0.558594"/><stop style="stop-color:#ff731e;stop-opacity:1;" offset="0.5625"/><stop style="stop-color:#ff701c;stop-opacity:1;" offset="0.566406"/><stop style="stop-color:#ff6e1b;stop-opacity:1;" offset="0.570312"/><stop style="stop-color:#ff6b19;stop-opacity:1;" offset="0.574219"/><stop style="stop-color:#ff6918;stop-opacity:1;" offset="0.578125"/><stop style="stop-color:#ff6716;stop-opacity:1;" offset="0.582031"/><stop style="stop-color:#ff6514;stop-opacity:1;" offset="0.585938"/><stop style="stop-color:#ff6312;stop-opacity:1;" offset="0.589844"/><stop style="stop-color:#ff6110;stop-opacity:1;" offset="0.59375"/><stop style="stop-color:#ff5f0e;stop-opacity:1;" offset="0.597656"/><stop style="stop-color:#ff5d0c;stop-opacity:1;" offset="0.601562"/><stop style="stop-color:#ff5c0a;stop-opacity:1;" offset="0.605469"/><stop style="stop-color:#ff5a08;stop-opacity:1;" offset="0.609375"/><stop style="stop-color:#ff5806;stop-opacity:1;" offset="0.613281"/><stop style="stop-color:#ff5604;stop-opacity:1;" offset="0.617188"/><stop style="stop-color:#ff5402;stop-opacity:1;" offset="0.621094"/><stop style="stop-color:#ff5200;stop-opacity:1;" offset="0.625"/><stop style="stop-color:#ff5200;stop-opacity:1;" offset="0.65625"/><stop style="stop-color:#ff5200;stop-opacity:1;" offset="0.671875"/><stop style="stop-color:#fe5100;stop-opacity:1;" offset="0.675781"/><stop style="stop-color:#fc5100;stop-opacity:1;" offset="0.679688"/><stop style="stop-color:#fa5000;stop-opacity:1;" offset="0.683594"/><stop style="stop-color:#f84f00;stop-opacity:1;" offset="0.6875"/><stop style="stop-color:#f64e00;stop-opacity:1;" offset="0.691406"/><stop style="stop-color:#f44d00;stop-opacity:1;" offset="0.695313"/><stop style="stop-color:#f24b00;stop-opacity:1;" offset="0.699219"/><stop style="stop-color:#f04a00;stop-opacity:1;" offset="0.703125"/><stop style="stop-color:#ee4900;stop-opacity:1;" offset="0.707031"/><stop style="stop-color:#ec4800;stop-opacity:1;" offset="0.710938"/><stop style="stop-color:#ea4700;stop-opacity:1;" offset="0.714844"/><stop style="stop-color:#e84600;stop-opacity:1;" offset="0.71875"/><stop style="stop-color:#e84600;stop-opacity:1;" offset="0.722656"/><stop style="stop-color:#e74701;stop-opacity:1;" offset="0.726562"/><stop style="stop-color:#e84802;stop-opacity:1;" offset="0.730469"/><stop style="stop-color:#e94a03;stop-opacity:1;" offset="0.734375"/><stop style="stop-color:#eb4c05;stop-opacity:1;" offset="0.738281"/><stop style="stop-color:#ec4e06;stop-opacity:1;" offset="0.742188"/><stop style="stop-color:#ed4f07;stop-opacity:1;" offset="0.746094"/><stop style="stop-color:#ee5108;stop-opacity:1;" offset="0.75"/><stop style="stop-color:#ef5309;stop-opacity:1;" offset="0.753906"/><stop style="stop-color:#f0550a;stop-opacity:1;" offset="0.757812"/><stop style="stop-color:#f2560c;stop-opacity:1;" offset="0.761719"/><stop style="stop-color:#f3580d;stop-opacity:1;" offset="0.765625"/><stop style="stop-color:#f45a0e;stop-opacity:1;" offset="0.769531"/><stop style="stop-color:#f55c0f;stop-opacity:1;" offset="0.773438"/><stop style="stop-color:#f65d10;stop-opacity:1;" offset="0.777344"/><stop style="stop-color:#f85f12;stop-opacity:1;" offset="0.78125"/><stop style="stop-color:#f96113;stop-opacity:1;" offset="0.785156"/><stop style="stop-color:#fa6314;stop-opacity:1;" offset="0.789062"/><stop style="stop-color:#fb6415;stop-opacity:1;" offset="0.792969"/><stop style="stop-color:#fc6616;stop-opacity:1;" offset="0.796875"/><stop style="stop-color:#fe6818;stop-opacity:1;" offset="0.800781"/><stop style="stop-color:#ff6a19;stop-opacity:1;" offset="0.804688"/><stop style="stop-color:#ff6b19;stop-opacity:1;" offset="0.808594"/><stop style="stop-color:#ff6c1a;stop-opacity:1;" offset="0.8125"/><stop style="stop-color:#ff6e1b;stop-opacity:1;" offset="0.816406"/><stop style="stop-color:#ff6f1c;stop-opacity:1;" offset="0.820312"/><stop style="stop-color:#ff701c;stop-opacity:1;" offset="0.824219"/><stop style="stop-color:#ff721d;stop-opacity:1;" offset="0.828125"/><stop style="stop-color:#ff731e;stop-opacity:1;" offset="0.832031"/><stop style="stop-color:#ff741f;stop-opacity:1;" offset="0.835937"/><stop style="stop-color:#ff761f;stop-opacity:1;" offset="0.839844"/><stop style="stop-color:#ff7720;stop-opacity:1;" offset="0.84375"/><stop style="stop-color:#ff7821;stop-opacity:1;" offset="0.847656"/><stop style="stop-color:#ff7921;stop-opacity:1;" offset="0.851563"/><stop style="stop-color:#ff7b22;stop-opacity:1;" offset="0.855469"/><stop style="stop-color:#ff7c23;stop-opacity:1;" offset="0.859375"/><stop style="stop-color:#ff7d24;stop-opacity:1;" offset="0.863281"/><stop style="stop-color:#ff7f24;stop-opacity:1;" offset="0.867188"/><stop style="stop-color:#ff8025;stop-opacity:1;" offset="0.871094"/><stop style="stop-color:#ff8126;stop-opacity:1;" offset="0.875"/><stop style="stop-color:#ff8326;stop-opacity:1;" offset="0.878906"/><stop style="stop-color:#ff8427;stop-opacity:1;" offset="0.882812"/><stop style="stop-color:#ff8528;stop-opacity:1;" offset="0.886719"/><stop style="stop-color:#ff8629;stop-opacity:1;" offset="0.890625"/><stop style="stop-color:#ff8829;stop-opacity:1;" offset="0.894531"/><stop style="stop-color:#ff892a;stop-opacity:1;" offset="0.898437"/><stop style="stop-color:#ff8a2b;stop-opacity:1;" offset="0.902344"/><stop style="stop-color:#ff8b2b;stop-opacity:1;" offset="0.90625"/><stop style="stop-color:#ff8a2b;stop-opacity:1;" offset="0.914063"/><stop style="stop-color:#ff892a;stop-opacity:1;" offset="0.921875"/><stop style="stop-color:#ff892a;stop-opacity:1;" offset="0.929688"/><stop style="stop-color:#ff8829;stop-opacity:1;" offset="0.9375"/><stop style="stop-color:#ff8729;stop-opacity:1;" offset="0.945313"/><stop style="stop-color:#ff8628;stop-opacity:1;" offset="0.953125"/><stop style="stop-color:#ff8528;stop-opacity:1;" offset="0.960938"/><stop style="stop-color:#ff8427;stop-opacity:1;" offset="0.96875"/><stop style="stop-color:#ff8327;stop-opacity:1;" offset="0.976562"/><stop style="stop-color:#ff8226;stop-opacity:1;" offset="0.984375"/><stop style="stop-color:#ff8226;stop-opacity:1;" offset="0.992187"/><stop style="stop-color:#ff8125;stop-opacity:1;" offset="1"/></linearGradient><clipPath id="c12864e679"><path d="M 43 63 L 82 63 L 82 94 L 43 94 Z M 43 63 "/></clipPath><clipPath id="055c9cab34"><path d="M 76.292969 63.25 L 67.390625 68.132812 L 67.21875 68.226562 L 67.128906 68.273438 L 52.421875 76.351562 L 44.734375 90.90625 L 43.285156 93.644531 C 43.5625 93.628906 43.828125 93.566406 44.085938 93.457031 L 44.433594 93.257812 L 72.167969 77.6875 L 72.253906 77.636719 L 72.378906 77.566406 L 81.210938 72.59375 Z M 76.292969 63.25 "/></clipPath><linearGradient x1="182.969054" gradientTransform="matrix(0.265714,0,0,0.265622,34.842459,49.734605)" y1="71.204892" x2="20.735741" gradientUnits="userSpaceOnUse" y2="138.804841" id="6d02a743d0"><stop style="stop-color:#ff8b2b;stop-opacity:1;" offset="0"/><stop style="stop-color:#ff8b2b;stop-opacity:1;" offset="0.25"/><stop style="stop-color:#ff8b2b;stop-opacity:1;" offset="0.250424"/><stop style="stop-color:#ff8b2b;stop-opacity:1;" offset="0.375"/><stop style="stop-color:#ff8b2b;stop-opacity:1;" offset="0.4375"/><stop style="stop-color:#ff8b2b;stop-opacity:1;" offset="0.46875"/><stop style="stop-color:#ff8b2b;stop-opacity:1;" offset="0.484375"/><stop style="stop-color:#ff8a2b;stop-opacity:1;" offset="0.488281"/><stop style="stop-color:#ff8a2b;stop-opacity:1;" offset="0.492188"/><stop style="stop-color:#ff892a;stop-opacity:1;" offset="0.496094"/><stop style="stop-color:#ff8729;stop-opacity:1;" offset="0.5"/><stop style="stop-color:#ff8628;stop-opacity:1;" offset="0.503906"/><stop style="stop-color:#ff8528;stop-opacity:1;" offset="0.507812"/><stop style="stop-color:#ff8427;stop-opacity:1;" offset="0.511719"/><stop style="stop-color:#ff8226;stop-opacity:1;" offset="0.515625"/><stop style="stop-color:#ff8126;stop-opacity:1;" offset="0.519531"/><stop style="stop-color:#ff8025;stop-opacity:1;" offset="0.523438"/><stop style="stop-color:#ff7e24;stop-opacity:1;" offset="0.527344"/><stop style="stop-color:#ff7d23;stop-opacity:1;" offset="0.53125"/><stop style="stop-color:#ff7c23;stop-opacity:1;" offset="0.535156"/><stop style="stop-color:#ff7b22;stop-opacity:1;" offset="0.539063"/><stop style="stop-color:#ff7921;stop-opacity:1;" offset="0.542969"/><stop style="stop-color:#ff7821;stop-opacity:1;" offset="0.546875"/><stop style="stop-color:#ff7720;stop-opacity:1;" offset="0.550781"/><stop style="stop-color:#ff751f;stop-opacity:1;" offset="0.554688"/><stop style="stop-color:#ff741f;stop-opacity:1;" offset="0.558594"/><stop style="stop-color:#ff731e;stop-opacity:1;" offset="0.5625"/><stop style="stop-color:#ff721d;stop-opacity:1;" offset="0.566406"/><stop style="stop-color:#ff701c;stop-opacity:1;" offset="0.570313"/><stop style="stop-color:#ff6f1c;stop-opacity:1;" offset="0.574219"/><stop style="stop-color:#ff6e1b;stop-opacity:1;" offset="0.578125"/><stop style="stop-color:#ff6d1a;stop-opacity:1;" offset="0.582031"/><stop style="stop-color:#ff6b1a;stop-opacity:1;" offset="0.585938"/><stop style="stop-color:#ff6b19;stop-opacity:1;" offset="0.589844"/><stop style="stop-color:#ff6a19;stop-opacity:1;" offset="0.59375"/><stop style="stop-color:#ff6918;stop-opacity:1;" offset="0.609375"/><stop style="stop-color:#ff6817;stop-opacity:1;" offset="0.625"/><stop style="stop-color:#ff6716;stop-opacity:1;" offset="0.640625"/><stop style="stop-color:#ff6615;stop-opacity:1;" offset="0.65625"/><stop style="stop-color:#ff6614;stop-opacity:1;" offset="0.671875"/><stop style="stop-color:#ff6513;stop-opacity:1;" offset="0.6875"/><stop style="stop-color:#ff6412;stop-opacity:1;" offset="0.703125"/><stop style="stop-color:#ff6311;stop-opacity:1;" offset="0.71875"/><stop style="stop-color:#ff6210;stop-opacity:1;" offset="0.734375"/><stop style="stop-color:#ff610f;stop-opacity:1;" offset="0.749576"/><stop style="stop-color:#ff600f;stop-opacity:1;" offset="0.75"/><stop style="stop-color:#ff600e;stop-opacity:1;" offset="0.765625"/><stop style="stop-color:#ff5f0d;stop-opacity:1;" offset="0.78125"/><stop style="stop-color:#ff5e0c;stop-opacity:1;" offset="0.796875"/><stop style="stop-color:#ff5d0b;stop-opacity:1;" offset="0.8125"/><stop style="stop-color:#ff5c0a;stop-opacity:1;" offset="0.828125"/><stop style="stop-color:#ff5b09;stop-opacity:1;" offset="0.84375"/><stop style="stop-color:#ff5a08;stop-opacity:1;" offset="0.859375"/><stop style="stop-color:#ff5907;stop-opacity:1;" offset="0.875"/><stop style="stop-color:#ff5806;stop-opacity:1;" offset="0.890625"/><stop style="stop-color:#ff5705;stop-opacity:1;" offset="0.90625"/><stop style="stop-color:#ff5604;stop-opacity:1;" offset="0.921875"/><stop style="stop-color:#ff5503;stop-opacity:1;" offset="0.9375"/><stop style="stop-color:#ff5402;stop-opacity:1;" offset="0.953125"/><stop style="stop-color:#ff5301;stop-opacity:1;" offset="0.96875"/><stop style="stop-color:#ff5200;stop-opacity:1;" offset="0.984375"/><stop style="stop-color:#fe5200;stop-opacity:1;" offset="0.992188"/><stop style="stop-color:#fe5100;stop-opacity:1;" offset="1"/></linearGradient></defs><g id="6fd7b2c68b"><rect x="0" width="300" y="0" height="149.999998" style="fill:#ffffff;fill-opacity:1;stroke:none;"/><rect x="0" width="300" y="0" height="149.999998" style="fill:#000000;fill-opacity:1;stroke:none;"/><g clip-rule="nonzero" clip-path="url(#20371e37c9)"><g clip-rule="nonzero" clip-path="url(#793cb8ca99)"><path style=" stroke:none;fill-rule:nonzero;fill:url(#f45cf18f9b);" d="M 34.84375 50.183594 L 34.84375 93.667969 L 61.898438 93.667969 L 61.898438 50.183594 Z M 34.84375 50.183594 "/></g></g><g clip-rule="nonzero" clip-path="url(#d7e9b799d0)"><g clip-rule="nonzero" clip-path="url(#7dc027e199)"><path style=" stroke:none;fill-rule:nonzero;fill:url(#797fc27389);" d="M 55.183594 49.734375 L 55.183594 93.664062 L 89.515625 93.664062 L 89.515625 49.734375 Z M 55.183594 49.734375 "/></g></g><g clip-rule="nonzero" clip-path="url(#c12864e679)"><g clip-rule="nonzero" clip-path="url(#055c9cab34)"><path style=" stroke:none;fill-rule:nonzero;fill:url(#6d02a743d0);" d="M 43.285156 63.25 L 43.285156 93.644531 L 81.210938 93.644531 L 81.210938 63.25 Z M 43.285156 63.25 "/></g></g><g style="fill:#f9f9f9;fill-opacity:1;"><g transform="translate(98.162171, 86.310743)"><path style="stroke:none" d="M 21.46875 0 L 19.09375 -6.8125 L 8.921875 -6.8125 L 6.546875 0 L 0.96875 0 L 10.703125 -26.6875 L 17.296875 -26.6875 L 27 0 Z M 14 -22.578125 L 13.890625 -22.15625 C 13.765625 -21.695312 13.613281 -21.175781 13.4375 -20.59375 C 13.257812 -20.019531 12.171875 -16.828125 10.171875 -11.015625 L 17.84375 -11.015625 L 15.21875 -18.6875 L 14.390625 -21.265625 Z M 14 -22.578125 "/></g></g><g style="fill:#f9f9f9;fill-opacity:1;"><g transform="translate(124.56119, 86.310743)"><path style="stroke:none" d="M 2.703125 -24.1875 L 2.703125 -28.09375 L 8.03125 -28.09375 L 8.03125 -24.1875 Z M 2.703125 0 L 2.703125 -20.484375 L 8.03125 -20.484375 L 8.03125 0 Z M 2.703125 0 "/></g></g><g style="fill:#f9f9f9;fill-opacity:1;"><g transform="translate(133.75925, 86.310743)"><path style="stroke:none" d="M 2.703125 0 L 2.703125 -28.09375 L 8.03125 -28.09375 L 8.03125 0 Z M 2.703125 0 "/></g></g><g style="fill:#f9f9f9;fill-opacity:1;"><g transform="translate(144.534737, 86.310743)"><path style="stroke:none" d="M 7.734375 -20.484375 L 7.734375 -9 C 7.734375 -5.394531 8.941406 -3.59375 11.359375 -3.59375 C 12.648438 -3.59375 13.691406 -4.144531 14.484375 -5.25 C 15.273438 -6.351562 15.671875 -7.769531 15.671875 -9.5 L 15.671875 -20.484375 L 20.984375 -20.484375 L 20.984375 -4.578125 C 20.984375 -2.835938 21.035156 -1.3125 21.140625 0 L 16.0625 0 C 15.914062 -1.820312 15.84375 -3.179688 15.84375 -4.078125 L 15.75 -4.078125 C 15.039062 -2.515625 14.140625 -1.378906 13.046875 -0.671875 C 11.953125 0.0234375 10.65625 0.375 9.15625 0.375 C 6.976562 0.375 5.304688 -0.285156 4.140625 -1.609375 C 2.984375 -2.941406 2.40625 -4.898438 2.40625 -7.484375 L 2.40625 -20.484375 Z M 7.734375 -20.484375 "/></g></g><g style="fill:#f9f9f9;fill-opacity:1;"><g transform="translate(168.225657, 86.310743)"><path style="stroke:none" d="M 14.78125 0 L 14.78125 -11.5 C 14.78125 -15.09375 13.742188 -16.890625 11.671875 -16.890625 C 10.597656 -16.890625 9.722656 -16.335938 9.046875 -15.234375 C 8.367188 -14.140625 8.03125 -12.722656 8.03125 -10.984375 L 8.03125 0 L 2.703125 0 L 2.703125 -15.90625 C 2.703125 -17 2.6875 -17.894531 2.65625 -18.59375 C 2.625 -19.300781 2.59375 -19.929688 2.5625 -20.484375 L 7.640625 -20.484375 C 7.671875 -20.242188 7.71875 -19.601562 7.78125 -18.5625 C 7.84375 -17.519531 7.875 -16.804688 7.875 -16.421875 L 7.953125 -16.421875 C 8.609375 -17.984375 9.425781 -19.117188 10.40625 -19.828125 C 11.382812 -20.535156 12.554688 -20.890625 13.921875 -20.890625 C 17.054688 -20.890625 18.957031 -19.398438 19.625 -16.421875 L 19.734375 -16.421875 C 20.429688 -18.003906 21.265625 -19.144531 22.234375 -19.84375 C 23.210938 -20.539062 24.453125 -20.890625 25.953125 -20.890625 C 27.953125 -20.890625 29.472656 -20.207031 30.515625 -18.84375 C 31.566406 -17.488281 32.09375 -15.546875 32.09375 -13.015625 L 32.09375 0 L 26.8125 0 L 26.8125 -11.5 C 26.8125 -15.09375 25.773438 -16.890625 23.703125 -16.890625 C 22.660156 -16.890625 21.804688 -16.382812 21.140625 -15.375 C 20.484375 -14.375 20.125 -12.992188 20.0625 -11.234375 L 20.0625 0 Z M 14.78125 0 "/></g></g><g style="fill:#f9f9f9;fill-opacity:1;"><g transform="translate(202.711002, 86.310743)"><path style="stroke:none" d="M 2.703125 -24.1875 L 2.703125 -28.09375 L 8.03125 -28.09375 L 8.03125 -24.1875 Z M 2.703125 0 L 2.703125 -20.484375 L 8.03125 -20.484375 L 8.03125 0 Z M 2.703125 0 "/></g></g><g style="fill:#f9f9f9;fill-opacity:1;"><g transform="translate(213.486489, 86.310743)"><path style="stroke:none" d="M 15.984375 0 L 15.984375 -11.5 C 15.984375 -15.09375 14.765625 -16.890625 12.328125 -16.890625 C 11.046875 -16.890625 10.007812 -16.335938 9.21875 -15.234375 C 8.425781 -14.128906 8.03125 -12.710938 8.03125 -10.984375 L 8.03125 0 L 2.703125 0 L 2.703125 -15.90625 C 2.703125 -17 2.6875 -17.894531 2.65625 -18.59375 C 2.625 -19.300781 2.59375 -19.929688 2.5625 -20.484375 L 7.640625 -20.484375 C 7.671875 -20.242188 7.71875 -19.601562 7.78125 -18.5625 C 7.84375 -17.519531 7.875 -16.804688 7.875 -16.421875 L 7.953125 -16.421875 C 8.671875 -17.984375 9.570312 -19.117188 10.65625 -19.828125 C 11.75 -20.535156 13.046875 -20.890625 14.546875 -20.890625 C 16.722656 -20.890625 18.390625 -20.21875 19.546875 -18.875 C 20.710938 -17.539062 21.296875 -15.585938 21.296875 -13.015625 L 21.296875 0 Z M 15.984375 0 "/></g></g><g style="fill:#f9f9f9;fill-opacity:1;"><g transform="translate(237.17741, 86.310743)"><path style="stroke:none" d="M 7.4375 0.375 C 5.457031 0.375 3.910156 -0.160156 2.796875 -1.234375 C 1.691406 -2.316406 1.140625 -3.835938 1.140625 -5.796875 C 1.140625 -7.910156 1.828125 -9.523438 3.203125 -10.640625 C 4.585938 -11.753906 6.59375 -12.320312 9.21875 -12.34375 L 13.640625 -12.421875 L 13.640625 -13.46875 C 13.640625 -14.800781 13.40625 -15.789062 12.9375 -16.4375 C 12.46875 -17.09375 11.703125 -17.421875 10.640625 -17.421875 C 9.660156 -17.421875 8.9375 -17.195312 8.46875 -16.75 C 8.007812 -16.300781 7.722656 -15.5625 7.609375 -14.53125 L 2.0625 -14.796875 C 2.40625 -16.785156 3.316406 -18.296875 4.796875 -19.328125 C 6.285156 -20.359375 8.3125 -20.875 10.875 -20.875 C 13.457031 -20.875 15.453125 -20.234375 16.859375 -18.953125 C 18.265625 -17.679688 18.96875 -15.867188 18.96875 -13.515625 L 18.96875 -6.0625 C 18.96875 -4.914062 19.09375 -4.125 19.34375 -3.6875 C 19.601562 -3.25 20.039062 -3.03125 20.65625 -3.03125 C 21.050781 -3.03125 21.441406 -3.066406 21.828125 -3.140625 L 21.828125 -0.265625 C 21.503906 -0.191406 21.21875 -0.125 20.96875 -0.0625 C 20.71875 0 20.460938 0.0507812 20.203125 0.09375 C 19.953125 0.132812 19.6875 0.164062 19.40625 0.1875 C 19.125 0.21875 18.789062 0.234375 18.40625 0.234375 C 17.070312 0.234375 16.082031 -0.09375 15.4375 -0.75 C 14.800781 -1.40625 14.421875 -2.375 14.296875 -3.65625 L 14.1875 -3.65625 C 12.695312 -0.96875 10.445312 0.375 7.4375 0.375 Z M 13.640625 -9.484375 L 10.90625 -9.453125 C 9.675781 -9.398438 8.800781 -9.257812 8.28125 -9.03125 C 7.757812 -8.8125 7.363281 -8.472656 7.09375 -8.015625 C 6.820312 -7.566406 6.6875 -6.96875 6.6875 -6.21875 C 6.6875 -5.238281 6.910156 -4.507812 7.359375 -4.03125 C 7.804688 -3.5625 8.40625 -3.328125 9.15625 -3.328125 C 9.988281 -3.328125 10.75 -3.554688 11.4375 -4.015625 C 12.125 -4.472656 12.660156 -5.097656 13.046875 -5.890625 C 13.441406 -6.691406 13.640625 -7.546875 13.640625 -8.453125 Z M 13.640625 -9.484375 "/></g></g><g style="fill:#f9f9f9;fill-opacity:1;"><g transform="translate(258.747321, 86.310743)"><path style="stroke:none" d="M 7.953125 0.34375 C 6.390625 0.34375 5.179688 -0.0820312 4.328125 -0.9375 C 3.484375 -1.789062 3.0625 -3.082031 3.0625 -4.8125 L 3.0625 -16.890625 L 0.46875 -16.890625 L 0.46875 -20.484375 L 3.328125 -20.484375 L 5 -25.296875 L 8.328125 -25.296875 L 8.328125 -20.484375 L 12.21875 -20.484375 L 12.21875 -16.890625 L 8.328125 -16.890625 L 8.328125 -6.25 C 8.328125 -5.25 8.515625 -4.507812 8.890625 -4.03125 C 9.273438 -3.5625 9.867188 -3.328125 10.671875 -3.328125 C 11.085938 -3.328125 11.679688 -3.414062 12.453125 -3.59375 L 12.453125 -0.296875 C 11.128906 0.128906 9.628906 0.34375 7.953125 0.34375 Z M 7.953125 0.34375 "/></g></g><g style="fill:#f9f9f9;fill-opacity:1;"><g transform="translate(271.662755, 86.310743)"><path style="stroke:none" d="M 2.703125 -24.1875 L 2.703125 -28.09375 L 8.03125 -28.09375 L 8.03125 -24.1875 Z M 2.703125 0 L 2.703125 -20.484375 L 8.03125 -20.484375 L 8.03125 0 Z M 2.703125 0 "/></g></g></g></svg>